<svg xmlns="http://www.w3.org/2000/svg" xmlns:xlink="http://www.w3.org/1999/xlink" version="1.1" width="256" height="256" viewBox="0 0 256 256" xml:space="preserve">

<defs>
</defs>
<g style="stroke: none; stroke-width: 0; stroke-dasharray: none; stroke-linecap: butt; stroke-linejoin: miter; stroke-miterlimit: 10; fill: none; fill-rule: nonzero; opacity: 1;" transform="translate(1.4065934065934016 1.4065934065934016) scale(2.81 2.81)" >
	<circle cx="45" cy="45" r="44" style="stroke: none; stroke-width: 1; stroke-dasharray: none; stroke-linecap: butt; stroke-linejoin: miter; stroke-miterlimit: 10; fill: rgb(220,244,219); fill-rule: nonzero; opacity: 1;" transform="  matrix(1 0 0 1 0 0) "/>
	<path d="M 45 90 C 20.187 90 0 69.813 0 45 C 0 20.187 20.187 0 45 0 c 24.813 0 45 20.187 45 45 C 90 69.813 69.813 90 45 90 z M 45 2 C 21.29 2 2 21.29 2 45 c 0 23.71 19.29 43 43 43 c 23.71 0 43 -19.29 43 -43 C 88 21.29 68.71 2 45 2 z" style="stroke: none; stroke-width: 1; stroke-dasharray: none; stroke-linecap: butt; stroke-linejoin: miter; stroke-miterlimit: 10; fill: rgb(0,0,0); fill-rule: nonzero; opacity: 1;" transform=" matrix(1 0 0 1 0 0) " stroke-linecap="round" />
	<path d="M 13.157 51.909 h -1.938 c -1.768 0 -3.206 -1.438 -3.206 -3.206 v -5.819 c 0 -1.768 1.438 -3.206 3.206 -3.206 h 1.938 c 1.768 0 3.206 1.438 3.206 3.206 c 0 0.552 -0.448 1 -1 1 s -1 -0.448 -1 -1 c 0 -0.665 -0.541 -1.206 -1.206 -1.206 h -1.938 c -0.665 0 -1.206 0.541 -1.206 1.206 v 5.819 c 0 0.665 0.541 1.206 1.206 1.206 h 1.938 c 0.665 0 1.206 -0.541 1.206 -1.206 c 0 -0.553 0.448 -1 1 -1 s 1 0.447 1 1 C 16.363 50.471 14.925 51.909 13.157 51.909 z" style="stroke: none; stroke-width: 1; stroke-dasharray: none; stroke-linecap: butt; stroke-linejoin: miter; stroke-miterlimit: 10; fill: rgb(0,0,0); fill-rule: nonzero; opacity: 1;" transform=" matrix(1 0 0 1 0 0) " stroke-linecap="round" />
	<path d="M 24.924 51.909 H 19.75 c -0.552 0 -1 -0.447 -1 -1 V 40.678 c 0 -0.552 0.448 -1 1 -1 h 5.175 c 0.552 0 1 0.448 1 1 s -0.448 1 -1 1 H 20.75 v 8.231 h 4.175 c 0.552 0 1 0.447 1 1 S 25.477 51.909 24.924 51.909 z" style="stroke: none; stroke-width: 1; stroke-dasharray: none; stroke-linecap: butt; stroke-linejoin: miter; stroke-miterlimit: 10; fill: rgb(0,0,0); fill-rule: nonzero; opacity: 1;" transform=" matrix(1 0 0 1 0 0) " stroke-linecap="round" />
	<path d="M 23.355 46.793 H 19.75 c -0.552 0 -1 -0.447 -1 -1 s 0.448 -1 1 -1 h 3.606 c 0.552 0 1 0.448 1 1 S 23.908 46.793 23.355 46.793 z" style="stroke: none; stroke-width: 1; stroke-dasharray: none; stroke-linecap: butt; stroke-linejoin: miter; stroke-miterlimit: 10; fill: rgb(0,0,0); fill-rule: nonzero; opacity: 1;" transform=" matrix(1 0 0 1 0 0) " stroke-linecap="round" />
	<path d="M 32.456 46.794 h -3.522 c -0.552 0 -1 -0.448 -1 -1 v -5.115 c 0 -0.552 0.448 -1 1 -1 h 3.522 c 1.63 0 2.956 1.326 2.956 2.956 v 1.203 C 35.412 45.467 34.086 46.794 32.456 46.794 z M 29.934 44.793 h 2.522 c 0.527 0 0.956 -0.429 0.956 -0.956 v -1.203 c 0 -0.527 -0.429 -0.956 -0.956 -0.956 h -2.522 V 44.793 z" style="stroke: none; stroke-width: 1; stroke-dasharray: none; stroke-linecap: butt; stroke-linejoin: miter; stroke-miterlimit: 10; fill: rgb(0,0,0); fill-rule: nonzero; opacity: 1;" transform=" matrix(1 0 0 1 0 0) " stroke-linecap="round" />
	<path d="M 34.412 51.909 c -0.552 0 -1 -0.447 -1 -1 V 47.75 c 0 -0.527 -0.429 -0.957 -0.956 -0.957 h -2.522 v 4.116 c 0 0.553 -0.448 1 -1 1 s -1 -0.447 -1 -1 v -5.116 c 0 -0.552 0.448 -1 1 -1 h 3.522 c 1.63 0 2.956 1.327 2.956 2.957 v 3.159 C 35.412 51.462 34.964 51.909 34.412 51.909 z" style="stroke: none; stroke-width: 1; stroke-dasharray: none; stroke-linecap: butt; stroke-linejoin: miter; stroke-miterlimit: 10; fill: rgb(0,0,0); fill-rule: nonzero; opacity: 1;" transform=" matrix(1 0 0 1 0 0) " stroke-linecap="round" />
	<path d="M 44.608 41.678 h -6.454 c -0.552 0 -1 -0.448 -1 -1 s 0.448 -1 1 -1 h 6.454 c 0.552 0 1 0.448 1 1 S 45.161 41.678 44.608 41.678 z" style="stroke: none; stroke-width: 1; stroke-dasharray: none; stroke-linecap: butt; stroke-linejoin: miter; stroke-miterlimit: 10; fill: rgb(0,0,0); fill-rule: nonzero; opacity: 1;" transform=" matrix(1 0 0 1 0 0) " stroke-linecap="round" />
	<path d="M 41.381 51.909 c -0.552 0 -1 -0.447 -1 -1 V 40.678 c 0 -0.552 0.448 -1 1 -1 s 1 0.448 1 1 v 10.231 C 42.381 51.462 41.934 51.909 41.381 51.909 z" style="stroke: none; stroke-width: 1; stroke-dasharray: none; stroke-linecap: butt; stroke-linejoin: miter; stroke-miterlimit: 10; fill: rgb(0,0,0); fill-rule: nonzero; opacity: 1;" transform=" matrix(1 0 0 1 0 0) " stroke-linecap="round" />
	<path d="M 47.758 51.909 c -0.553 0 -1 -0.447 -1 -1 V 40.678 c 0 -0.552 0.447 -1 1 -1 s 1 0.448 1 1 v 10.231 C 48.758 51.462 48.311 51.909 47.758 51.909 z" style="stroke: none; stroke-width: 1; stroke-dasharray: none; stroke-linecap: butt; stroke-linejoin: miter; stroke-miterlimit: 10; fill: rgb(0,0,0); fill-rule: nonzero; opacity: 1;" transform=" matrix(1 0 0 1 0 0) " stroke-linecap="round" />
	<path d="M 52.641 51.909 c -0.553 0 -1 -0.447 -1 -1 V 40.678 c 0 -0.552 0.447 -1 1 -1 h 4.535 c 0.553 0 1 0.448 1 1 s -0.447 1 -1 1 h -3.535 v 9.231 C 53.641 51.462 53.193 51.909 52.641 51.909 z" style="stroke: none; stroke-width: 1; stroke-dasharray: none; stroke-linecap: butt; stroke-linejoin: miter; stroke-miterlimit: 10; fill: rgb(0,0,0); fill-rule: nonzero; opacity: 1;" transform=" matrix(1 0 0 1 0 0) " stroke-linecap="round" />
	<path d="M 55.607 46.793 h -2.967 c -0.553 0 -1 -0.447 -1 -1 s 0.447 -1 1 -1 h 2.967 c 0.553 0 1 0.448 1 1 S 56.16 46.793 55.607 46.793 z" style="stroke: none; stroke-width: 1; stroke-dasharray: none; stroke-linecap: butt; stroke-linejoin: miter; stroke-miterlimit: 10; fill: rgb(0,0,0); fill-rule: nonzero; opacity: 1;" transform=" matrix(1 0 0 1 0 0) " stroke-linecap="round" />
	<path d="M 61.186 51.909 c -0.553 0 -1 -0.447 -1 -1 V 40.678 c 0 -0.552 0.447 -1 1 -1 s 1 0.448 1 1 v 10.231 C 62.186 51.462 61.738 51.909 61.186 51.909 z" style="stroke: none; stroke-width: 1; stroke-dasharray: none; stroke-linecap: butt; stroke-linejoin: miter; stroke-miterlimit: 10; fill: rgb(0,0,0); fill-rule: nonzero; opacity: 1;" transform=" matrix(1 0 0 1 0 0) " stroke-linecap="round" />
	<path d="M 70.964 51.909 h -5.175 c -0.553 0 -1 -0.447 -1 -1 V 40.678 c 0 -0.552 0.447 -1 1 -1 h 5.175 c 0.553 0 1 0.448 1 1 s -0.447 1 -1 1 h -4.175 v 8.231 h 4.175 c 0.553 0 1 0.447 1 1 S 71.517 51.909 70.964 51.909 z" style="stroke: none; stroke-width: 1; stroke-dasharray: none; stroke-linecap: butt; stroke-linejoin: miter; stroke-miterlimit: 10; fill: rgb(0,0,0); fill-rule: nonzero; opacity: 1;" transform=" matrix(1 0 0 1 0 0) " stroke-linecap="round" />
	<path d="M 69.396 46.793 h -3.606 c -0.553 0 -1 -0.447 -1 -1 s 0.447 -1 1 -1 h 3.606 c 0.553 0 1 0.448 1 1 S 69.948 46.793 69.396 46.793 z" style="stroke: none; stroke-width: 1; stroke-dasharray: none; stroke-linecap: butt; stroke-linejoin: miter; stroke-miterlimit: 10; fill: rgb(0,0,0); fill-rule: nonzero; opacity: 1;" transform=" matrix(1 0 0 1 0 0) " stroke-linecap="round" />
	<path d="M 78.781 51.909 h -4.145 c -0.553 0 -1 -0.447 -1 -1 V 40.678 c 0 -0.552 0.447 -1 1 -1 h 4.145 c 1.768 0 3.206 1.438 3.206 3.206 v 5.819 C 81.987 50.471 80.549 51.909 78.781 51.909 z M 75.637 49.909 h 3.145 c 0.665 0 1.206 -0.541 1.206 -1.206 v -5.819 c 0 -0.665 -0.541 -1.206 -1.206 -1.206 h -3.145 V 49.909 z" style="stroke: none; stroke-width: 1; stroke-dasharray: none; stroke-linecap: butt; stroke-linejoin: miter; stroke-miterlimit: 10; fill: rgb(0,0,0); fill-rule: nonzero; opacity: 1;" transform=" matrix(1 0 0 1 0 0) " stroke-linecap="round" />
	<polygon points="60.05,57.81 60.05,79.54 45,70.74 29.95,79.54 29.95,57.81 " style="stroke: none; stroke-width: 1; stroke-dasharray: none; stroke-linecap: butt; stroke-linejoin: miter; stroke-miterlimit: 10; fill: rgb(242,73,170); fill-rule: nonzero; opacity: 1;" transform="  matrix(1 0 0 1 0 0) "/>
	<path d="M 60.048 80.538 c -0.175 0 -0.349 -0.046 -0.505 -0.137 L 45 71.902 l -14.543 8.499 c -0.31 0.181 -0.692 0.184 -1.002 0.004 c -0.311 -0.178 -0.502 -0.509 -0.502 -0.867 v -21.73 c 0 -0.553 0.448 -1 1 -1 h 30.096 c 0.553 0 1 0.447 1 1 v 21.73 c 0 0.358 -0.191 0.689 -0.502 0.867 C 60.392 80.494 60.22 80.538 60.048 80.538 z M 45 69.744 c 0.174 0 0.349 0.046 0.504 0.137 l 13.543 7.915 V 58.808 H 30.952 v 18.988 l 13.543 -7.915 C 44.651 69.79 44.826 69.744 45 69.744 z" style="stroke: none; stroke-width: 1; stroke-dasharray: none; stroke-linecap: butt; stroke-linejoin: miter; stroke-miterlimit: 10; fill: rgb(0,0,0); fill-rule: nonzero; opacity: 1;" transform=" matrix(1 0 0 1 0 0) " stroke-linecap="round" />
	<path d="M 59.286 23.384 c 0 -1.169 -0.947 -2.116 -2.116 -2.116 h -0.858 c 1.169 0 2.116 -0.947 2.116 -2.116 c 0 -1.169 -0.947 -2.116 -2.116 -2.116 h -3.614 l -4.242 0.004 c 0.783 -7.485 -0.573 -9.713 -3.372 -9.388 c -0.379 0.044 -0.677 0.357 -0.713 0.737 c -0.43 4.489 -3.194 10.178 -6.006 10.341 h -7.65 v 9.485 v 3.399 h 6.569 c 1.378 0 2.726 0.406 3.874 1.169 c 1.148 0.762 2.496 1.169 3.874 1.169 h 5.491 h 0.03 h 4.472 c 1.169 0 2.116 -0.947 2.116 -2.116 v 0 c 0 -1.143 -0.908 -2.068 -2.041 -2.109 h 1.212 c 1.169 0 2.116 -0.947 2.116 -2.116 c 0 -1.143 -0.908 -2.068 -2.041 -2.109 h 0.783 C 58.338 25.5 59.286 24.552 59.286 23.384 z" style="stroke: none; stroke-width: 1; stroke-dasharray: none; stroke-linecap: butt; stroke-linejoin: miter; stroke-miterlimit: 10; fill: rgb(247,176,129); fill-rule: nonzero; opacity: 1;" transform=" matrix(1 0 0 1 0 0) " stroke-linecap="round" />
	<path d="M 57.17 26.5 h -4.503 c -0.553 0 -1 -0.448 -1 -1 s 0.447 -1 1 -1 h 4.503 c 0.615 0 1.116 -0.5 1.116 -1.116 s -0.501 -1.116 -1.116 -1.116 h -4.503 c -0.553 0 -1 -0.448 -1 -1 s 0.447 -1 1 -1 h 4.503 c 1.719 0 3.116 1.398 3.116 3.116 S 58.889 26.5 57.17 26.5 z" style="stroke: none; stroke-width: 1; stroke-dasharray: none; stroke-linecap: butt; stroke-linejoin: miter; stroke-miterlimit: 10; fill: rgb(0,0,0); fill-rule: nonzero; opacity: 1;" transform=" matrix(1 0 0 1 0 0) " stroke-linecap="round" />
	<path d="M 56.312 30.725 h -4.503 c -0.553 0 -1 -0.448 -1 -1 s 0.447 -1 1 -1 h 4.503 c 0.615 0 1.116 -0.5 1.116 -1.116 s -0.501 -1.116 -1.116 -1.116 h -4.503 c -0.553 0 -1 -0.448 -1 -1 s 0.447 -1 1 -1 h 4.503 c 1.719 0 3.116 1.398 3.116 3.116 S 58.03 30.725 56.312 30.725 z" style="stroke: none; stroke-width: 1; stroke-dasharray: none; stroke-linecap: butt; stroke-linejoin: miter; stroke-miterlimit: 10; fill: rgb(0,0,0); fill-rule: nonzero; opacity: 1;" transform=" matrix(1 0 0 1 0 0) " stroke-linecap="round" />
	<path d="M 55.023 34.95 h -9.993 c -1.58 0 -3.11 -0.462 -4.427 -1.336 c -0.987 -0.655 -2.136 -1.001 -3.32 -1.001 h -6.569 c -0.552 0 -1 -0.448 -1 -1 V 18.729 c 0 -0.552 0.448 -1 1 -1 h 7.65 c 1.938 -0.114 4.59 -5.053 5.01 -9.436 c 0.082 -0.849 0.751 -1.537 1.592 -1.635 c 1.303 -0.152 2.361 0.164 3.144 0.939 c 1.357 1.342 1.812 3.967 1.443 8.441 l 6.758 -0.003 c 1.719 0 3.116 1.398 3.116 3.116 s -1.397 3.116 -3.116 3.116 h -4.503 c -0.553 0 -1 -0.448 -1 -1 s 0.447 -1 1 -1 h 4.503 c 0.615 0 1.116 -0.501 1.116 -1.116 c 0 -0.616 -0.501 -1.116 -1.116 -1.116 l -7.855 0.004 h -0.001 c -0.283 0 -0.553 -0.12 -0.743 -0.331 c -0.189 -0.21 -0.281 -0.492 -0.251 -0.773 c 0.562 -5.369 -0.102 -7.268 -0.757 -7.916 c -0.201 -0.199 -0.558 -0.446 -1.354 -0.39 c -0.482 4.543 -3.313 10.889 -6.928 11.098 l -6.708 0.001 v 10.883 h 5.569 c 1.58 0 3.11 0.462 4.426 1.335 c 0.988 0.655 2.136 1.002 3.321 1.002 h 9.993 c 0.615 0 1.116 -0.5 1.116 -1.116 s -0.501 -1.116 -1.116 -1.116 h -4.502 c -0.553 0 -1 -0.448 -1 -1 s 0.447 -1 1 -1 h 4.502 c 1.719 0 3.116 1.398 3.116 3.116 S 56.742 34.95 55.023 34.95 z" style="stroke: none; stroke-width: 1; stroke-dasharray: none; stroke-linecap: butt; stroke-linejoin: miter; stroke-miterlimit: 10; fill: rgb(0,0,0); fill-rule: nonzero; opacity: 1;" transform=" matrix(1 0 0 1 0 0) " stroke-linecap="round" />
</g>
</svg>