<svg xmlns="http://www.w3.org/2000/svg" xmlns:xlink="http://www.w3.org/1999/xlink" version="1.1" width="256" height="256" viewBox="0 0 256 256" xml:space="preserve">

<defs>
</defs>
<g style="stroke: none; stroke-width: 0; stroke-dasharray: none; stroke-linecap: butt; stroke-linejoin: miter; stroke-miterlimit: 10; fill: none; fill-rule: nonzero; opacity: 1;" transform="translate(1.4065934065934016 1.4065934065934016) scale(2.81 2.81)" >
	<circle cx="45.001999999999995" cy="45.001999999999995" r="23.712" style="stroke: none; stroke-width: 1; stroke-dasharray: none; stroke-linecap: butt; stroke-linejoin: miter; stroke-miterlimit: 10; fill: rgb(243,243,251); fill-rule: nonzero; opacity: 1;" transform="  matrix(1 0 0 1 0 0) "/>
	<path d="M 45 41.529 L 45 41.529 c -2.611 0 -4.727 -2.117 -4.727 -4.727 v -3.457 c 0 -2.611 2.117 -4.727 4.727 -4.727 h 0 c 2.611 0 4.727 2.117 4.727 4.727 v 3.457 C 49.727 39.412 47.611 41.529 45 41.529 z" style="stroke: none; stroke-width: 1; stroke-dasharray: none; stroke-linecap: butt; stroke-linejoin: miter; stroke-miterlimit: 10; fill: rgb(255,215,170); fill-rule: nonzero; opacity: 1;" transform=" matrix(1 0 0 1 0 0) " stroke-linecap="round" />
	<path d="M 48.303 45.053 L 45 53.411 l -3.303 -8.358 c -3.768 1.356 -6.468 4.951 -6.468 9.186 v 5.066 c 2.782 1.904 6.145 3.021 9.77 3.021 s 6.988 -1.117 9.77 -3.021 v -5.066 C 54.77 50.004 52.071 46.409 48.303 45.053 z" style="stroke: none; stroke-width: 1; stroke-dasharray: none; stroke-linecap: butt; stroke-linejoin: miter; stroke-miterlimit: 10; fill: rgb(170,211,226); fill-rule: nonzero; opacity: 1;" transform=" matrix(1 0 0 1 0 0) " stroke-linecap="round" />
	<circle cx="75.632" cy="75.632" r="7.822" style="stroke: none; stroke-width: 1; stroke-dasharray: none; stroke-linecap: butt; stroke-linejoin: miter; stroke-miterlimit: 10; fill: rgb(170,211,226); fill-rule: nonzero; opacity: 1;" transform="  matrix(1 0 0 1 0 0) "/>
	<circle cx="14.372" cy="14.372" r="7.822" style="stroke: none; stroke-width: 1; stroke-dasharray: none; stroke-linecap: butt; stroke-linejoin: miter; stroke-miterlimit: 10; fill: rgb(170,211,226); fill-rule: nonzero; opacity: 1;" transform="  matrix(1 0 0 1 0 0) "/>
	<circle cx="75.632" cy="14.372" r="7.822" style="stroke: none; stroke-width: 1; stroke-dasharray: none; stroke-linecap: butt; stroke-linejoin: miter; stroke-miterlimit: 10; fill: rgb(170,211,226); fill-rule: nonzero; opacity: 1;" transform="  matrix(1 0 0 1 0 0) "/>
	<circle cx="14.372" cy="75.632" r="7.822" style="stroke: none; stroke-width: 1; stroke-dasharray: none; stroke-linecap: butt; stroke-linejoin: miter; stroke-miterlimit: 10; fill: rgb(170,211,226); fill-rule: nonzero; opacity: 1;" transform="  matrix(1 0 0 1 0 0) "/>
	<circle cx="5.253" cy="45.003" r="4.253" style="stroke: none; stroke-width: 1; stroke-dasharray: none; stroke-linecap: butt; stroke-linejoin: miter; stroke-miterlimit: 10; fill: rgb(170,211,226); fill-rule: nonzero; opacity: 1;" transform="  matrix(1 0 0 1 0 0) "/>
	<circle cx="84.743" cy="45.003" r="4.253" style="stroke: none; stroke-width: 1; stroke-dasharray: none; stroke-linecap: butt; stroke-linejoin: miter; stroke-miterlimit: 10; fill: rgb(170,211,226); fill-rule: nonzero; opacity: 1;" transform="  matrix(1 0 0 1 0 0) "/>
	<circle cx="45.003" cy="84.743" r="4.253" style="stroke: none; stroke-width: 1; stroke-dasharray: none; stroke-linecap: butt; stroke-linejoin: miter; stroke-miterlimit: 10; fill: rgb(170,211,226); fill-rule: nonzero; opacity: 1;" transform="  matrix(1 0 0 1 0 0) "/>
	<circle cx="45.003" cy="5.253" r="4.253" style="stroke: none; stroke-width: 1; stroke-dasharray: none; stroke-linecap: butt; stroke-linejoin: miter; stroke-miterlimit: 10; fill: rgb(170,211,226); fill-rule: nonzero; opacity: 1;" transform="  matrix(1 0 0 1 0 0) "/>
	<path d="M 45 69.712 c -13.626 0 -24.712 -11.086 -24.712 -24.712 S 31.374 20.288 45 20.288 S 69.712 31.374 69.712 45 S 58.626 69.712 45 69.712 z M 45 22.288 c -12.523 0 -22.712 10.188 -22.712 22.712 S 32.477 67.712 45 67.712 S 67.712 57.523 67.712 45 S 57.523 22.288 45 22.288 z" style="stroke: none; stroke-width: 1; stroke-dasharray: none; stroke-linecap: butt; stroke-linejoin: miter; stroke-miterlimit: 10; fill: rgb(0,0,0); fill-rule: nonzero; opacity: 1;" transform=" matrix(1 0 0 1 0 0) " stroke-linecap="round" />
	<path d="M 45 42.528 c -3.158 0 -5.728 -2.569 -5.728 -5.727 v -3.457 c 0 -3.158 2.569 -5.728 5.728 -5.728 s 5.728 2.569 5.728 5.728 v 3.457 C 50.728 39.959 48.158 42.528 45 42.528 z M 45 29.617 c -2.055 0 -3.728 1.672 -3.728 3.728 v 3.457 c 0 2.055 1.672 3.727 3.728 3.727 c 2.056 0 3.728 -1.672 3.728 -3.727 v -3.457 C 48.728 31.289 47.056 29.617 45 29.617 z" style="stroke: none; stroke-width: 1; stroke-dasharray: none; stroke-linecap: butt; stroke-linejoin: miter; stroke-miterlimit: 10; fill: rgb(0,0,0); fill-rule: nonzero; opacity: 1;" transform=" matrix(1 0 0 1 0 0) " stroke-linecap="round" />
	<path d="M 45 63.326 c -3.707 0 -7.28 -1.105 -10.335 -3.196 c -0.272 -0.187 -0.435 -0.495 -0.435 -0.825 v -5.065 c 0 -4.523 2.865 -8.593 7.129 -10.126 c 0.508 -0.183 1.069 0.071 1.269 0.573 L 45 50.69 l 2.373 -6.004 c 0.198 -0.501 0.757 -0.754 1.269 -0.573 c 4.264 1.534 7.129 5.604 7.129 10.126 v 5.065 c 0 0.33 -0.163 0.639 -0.436 0.825 C 52.28 62.221 48.706 63.326 45 63.326 z M 36.229 58.768 c 2.623 1.676 5.644 2.559 8.771 2.559 s 6.148 -0.883 8.771 -2.559 v -4.528 c 0 -3.356 -1.939 -6.407 -4.914 -7.866 l -2.926 7.405 c -0.151 0.382 -0.52 0.633 -0.93 0.633 s -0.779 -0.251 -0.93 -0.633 l -2.927 -7.405 c -2.974 1.459 -4.914 4.51 -4.914 7.866 V 58.768 z" style="stroke: none; stroke-width: 1; stroke-dasharray: none; stroke-linecap: butt; stroke-linejoin: miter; stroke-miterlimit: 10; fill: rgb(0,0,0); fill-rule: nonzero; opacity: 1;" transform=" matrix(1 0 0 1 0 0) " stroke-linecap="round" />
	<path d="M 75.629 84.446 c -2.26 0 -4.519 -0.86 -6.238 -2.58 c -3.439 -3.439 -3.439 -9.036 0 -12.476 c 3.439 -3.438 9.036 -3.439 12.476 0 s 3.439 9.036 0 12.476 C 80.146 83.586 77.888 84.446 75.629 84.446 z M 75.628 68.81 c -1.746 0 -3.493 0.665 -4.823 1.995 c -2.66 2.66 -2.66 6.987 0 9.647 c 2.661 2.661 6.988 2.659 9.647 0 c 2.66 -2.66 2.66 -6.987 0 -9.647 C 79.122 69.475 77.375 68.81 75.628 68.81 z" style="stroke: none; stroke-width: 1; stroke-dasharray: none; stroke-linecap: butt; stroke-linejoin: miter; stroke-miterlimit: 10; fill: rgb(0,0,0); fill-rule: nonzero; opacity: 1;" transform=" matrix(1 0 0 1 0 0) " stroke-linecap="round" />
	<path d="M 14.372 23.189 c -2.259 0 -4.518 -0.86 -6.238 -2.58 c -3.439 -3.439 -3.439 -9.036 0 -12.476 s 9.036 -3.439 12.476 0 s 3.439 9.036 0 12.476 C 18.89 22.329 16.631 23.189 14.372 23.189 z M 14.372 7.55 c -1.822 0 -3.535 0.709 -4.824 1.998 S 7.55 12.549 7.55 14.372 s 0.709 3.535 1.998 4.824 s 3.001 1.998 4.824 1.998 s 3.535 -0.709 4.824 -1.998 s 1.998 -3.001 1.998 -4.824 s -0.709 -3.535 -1.998 -4.824 S 16.194 7.55 14.372 7.55 z" style="stroke: none; stroke-width: 1; stroke-dasharray: none; stroke-linecap: butt; stroke-linejoin: miter; stroke-miterlimit: 10; fill: rgb(0,0,0); fill-rule: nonzero; opacity: 1;" transform=" matrix(1 0 0 1 0 0) " stroke-linecap="round" />
	<path d="M 28.233 29.233 c -0.256 0 -0.512 -0.098 -0.707 -0.293 l -8.331 -8.331 c -0.391 -0.391 -0.391 -1.023 0 -1.414 s 1.023 -0.391 1.414 0 l 8.331 8.331 c 0.391 0.391 0.391 1.023 0 1.414 C 28.745 29.135 28.489 29.233 28.233 29.233 z" style="stroke: none; stroke-width: 1; stroke-dasharray: none; stroke-linecap: butt; stroke-linejoin: miter; stroke-miterlimit: 10; fill: rgb(0,0,0); fill-rule: nonzero; opacity: 1;" transform=" matrix(1 0 0 1 0 0) " stroke-linecap="round" />
	<path d="M 70.098 71.098 c -0.256 0 -0.512 -0.098 -0.707 -0.293 l -8.331 -8.331 c -0.391 -0.391 -0.391 -1.023 0 -1.414 s 1.023 -0.391 1.414 0 l 8.331 8.331 c 0.391 0.391 0.391 1.023 0 1.414 C 70.609 71 70.354 71.098 70.098 71.098 z" style="stroke: none; stroke-width: 1; stroke-dasharray: none; stroke-linecap: butt; stroke-linejoin: miter; stroke-miterlimit: 10; fill: rgb(0,0,0); fill-rule: nonzero; opacity: 1;" transform=" matrix(1 0 0 1 0 0) " stroke-linecap="round" />
	<path d="M 75.629 23.189 c -2.26 0 -4.519 -0.86 -6.238 -2.58 c -3.439 -3.439 -3.439 -9.036 0 -12.476 c 3.439 -3.438 9.036 -3.439 12.476 0 s 3.439 9.036 0 12.476 C 80.146 22.329 77.888 23.189 75.629 23.189 z M 75.628 7.55 c -1.821 0 -3.534 0.709 -4.823 1.998 c -1.288 1.289 -1.998 3.001 -1.998 4.824 s 0.71 3.535 1.998 4.824 c 1.289 1.289 3.002 1.998 4.823 1.998 c 1.822 0 3.535 -0.709 4.824 -1.998 c 1.288 -1.289 1.998 -3.001 1.998 -4.824 s -0.71 -3.535 -1.998 -4.824 C 79.163 8.259 77.45 7.55 75.628 7.55 z" style="stroke: none; stroke-width: 1; stroke-dasharray: none; stroke-linecap: butt; stroke-linejoin: miter; stroke-miterlimit: 10; fill: rgb(0,0,0); fill-rule: nonzero; opacity: 1;" transform=" matrix(1 0 0 1 0 0) " stroke-linecap="round" />
	<path d="M 14.372 84.446 c -2.259 0 -4.518 -0.86 -6.238 -2.58 c -3.439 -3.439 -3.439 -9.036 0 -12.476 s 9.036 -3.439 12.476 0 s 3.439 9.036 0 12.476 C 18.89 83.586 16.631 84.446 14.372 84.446 z M 14.372 68.807 c -1.822 0 -3.535 0.71 -4.824 1.998 c -1.289 1.289 -1.998 3.002 -1.998 4.823 c 0 1.822 0.709 3.535 1.998 4.824 c 1.289 1.288 3.001 1.998 4.824 1.998 s 3.535 -0.71 4.824 -1.998 c 1.289 -1.289 1.998 -3.002 1.998 -4.824 c 0 -1.821 -0.709 -3.534 -1.998 -4.823 C 17.907 69.517 16.194 68.807 14.372 68.807 z" style="stroke: none; stroke-width: 1; stroke-dasharray: none; stroke-linecap: butt; stroke-linejoin: miter; stroke-miterlimit: 10; fill: rgb(0,0,0); fill-rule: nonzero; opacity: 1;" transform=" matrix(1 0 0 1 0 0) " stroke-linecap="round" />
	<path d="M 19.902 71.098 c -0.256 0 -0.512 -0.098 -0.707 -0.293 c -0.391 -0.391 -0.391 -1.023 0 -1.414 l 8.331 -8.331 c 0.391 -0.391 1.023 -0.391 1.414 0 s 0.391 1.023 0 1.414 l -8.331 8.331 C 20.414 71 20.158 71.098 19.902 71.098 z" style="stroke: none; stroke-width: 1; stroke-dasharray: none; stroke-linecap: butt; stroke-linejoin: miter; stroke-miterlimit: 10; fill: rgb(0,0,0); fill-rule: nonzero; opacity: 1;" transform=" matrix(1 0 0 1 0 0) " stroke-linecap="round" />
	<path d="M 61.767 29.233 c -0.256 0 -0.512 -0.098 -0.707 -0.293 c -0.391 -0.391 -0.391 -1.023 0 -1.414 l 8.331 -8.331 c 0.391 -0.391 1.023 -0.391 1.414 0 s 0.391 1.023 0 1.414 l -8.331 8.331 C 62.278 29.135 62.022 29.233 61.767 29.233 z" style="stroke: none; stroke-width: 1; stroke-dasharray: none; stroke-linecap: butt; stroke-linejoin: miter; stroke-miterlimit: 10; fill: rgb(0,0,0); fill-rule: nonzero; opacity: 1;" transform=" matrix(1 0 0 1 0 0) " stroke-linecap="round" />
	<path d="M 5.253 50.253 C 2.356 50.253 0 47.896 0 45 c 0 -2.897 2.356 -5.253 5.253 -5.253 c 2.896 0 5.253 2.356 5.253 5.253 C 10.506 47.896 8.15 50.253 5.253 50.253 z M 5.253 41.747 C 3.459 41.747 2 43.206 2 45 s 1.459 3.253 3.253 3.253 c 1.793 0 3.253 -1.459 3.253 -3.253 S 7.047 41.747 5.253 41.747 z" style="stroke: none; stroke-width: 1; stroke-dasharray: none; stroke-linecap: butt; stroke-linejoin: miter; stroke-miterlimit: 10; fill: rgb(0,0,0); fill-rule: nonzero; opacity: 1;" transform=" matrix(1 0 0 1 0 0) " stroke-linecap="round" />
	<path d="M 21.288 46 H 9.506 c -0.552 0 -1 -0.448 -1 -1 s 0.448 -1 1 -1 h 11.782 c 0.552 0 1 0.448 1 1 S 21.84 46 21.288 46 z" style="stroke: none; stroke-width: 1; stroke-dasharray: none; stroke-linecap: butt; stroke-linejoin: miter; stroke-miterlimit: 10; fill: rgb(0,0,0); fill-rule: nonzero; opacity: 1;" transform=" matrix(1 0 0 1 0 0) " stroke-linecap="round" />
	<path d="M 80.493 46 H 68.712 c -0.553 0 -1 -0.448 -1 -1 s 0.447 -1 1 -1 h 11.781 c 0.553 0 1 0.448 1 1 S 81.046 46 80.493 46 z" style="stroke: none; stroke-width: 1; stroke-dasharray: none; stroke-linecap: butt; stroke-linejoin: miter; stroke-miterlimit: 10; fill: rgb(0,0,0); fill-rule: nonzero; opacity: 1;" transform=" matrix(1 0 0 1 0 0) " stroke-linecap="round" />
	<path d="M 84.747 50.253 c -2.897 0 -5.254 -2.356 -5.254 -5.253 c 0 -2.897 2.356 -5.253 5.254 -5.253 C 87.644 39.747 90 42.103 90 45 C 90 47.896 87.644 50.253 84.747 50.253 z M 84.747 41.747 c -1.794 0 -3.254 1.459 -3.254 3.253 s 1.46 3.253 3.254 3.253 S 88 46.794 88 45 S 86.541 41.747 84.747 41.747 z" style="stroke: none; stroke-width: 1; stroke-dasharray: none; stroke-linecap: butt; stroke-linejoin: miter; stroke-miterlimit: 10; fill: rgb(0,0,0); fill-rule: nonzero; opacity: 1;" transform=" matrix(1 0 0 1 0 0) " stroke-linecap="round" />
	<path d="M 45 90 c -2.897 0 -5.253 -2.356 -5.253 -5.253 c 0 -2.897 2.356 -5.254 5.253 -5.254 c 2.896 0 5.253 2.356 5.253 5.254 C 50.253 87.644 47.896 90 45 90 z M 45 81.493 c -1.794 0 -3.253 1.46 -3.253 3.254 S 43.206 88 45 88 s 3.253 -1.459 3.253 -3.253 S 46.794 81.493 45 81.493 z" style="stroke: none; stroke-width: 1; stroke-dasharray: none; stroke-linecap: butt; stroke-linejoin: miter; stroke-miterlimit: 10; fill: rgb(0,0,0); fill-rule: nonzero; opacity: 1;" transform=" matrix(1 0 0 1 0 0) " stroke-linecap="round" />
	<path d="M 45 81.493 c -0.552 0 -1 -0.447 -1 -1 V 68.712 c 0 -0.553 0.448 -1 1 -1 s 1 0.447 1 1 v 11.781 C 46 81.046 45.552 81.493 45 81.493 z" style="stroke: none; stroke-width: 1; stroke-dasharray: none; stroke-linecap: butt; stroke-linejoin: miter; stroke-miterlimit: 10; fill: rgb(0,0,0); fill-rule: nonzero; opacity: 1;" transform=" matrix(1 0 0 1 0 0) " stroke-linecap="round" />
	<path d="M 45 22.288 c -0.552 0 -1 -0.448 -1 -1 V 9.506 c 0 -0.552 0.448 -1 1 -1 s 1 0.448 1 1 v 11.782 C 46 21.84 45.552 22.288 45 22.288 z" style="stroke: none; stroke-width: 1; stroke-dasharray: none; stroke-linecap: butt; stroke-linejoin: miter; stroke-miterlimit: 10; fill: rgb(0,0,0); fill-rule: nonzero; opacity: 1;" transform=" matrix(1 0 0 1 0 0) " stroke-linecap="round" />
	<path d="M 45 10.506 c -2.897 0 -5.253 -2.356 -5.253 -5.253 C 39.747 2.356 42.103 0 45 0 c 2.896 0 5.253 2.356 5.253 5.253 C 50.253 8.15 47.896 10.506 45 10.506 z M 45 2 c -1.794 0 -3.253 1.459 -3.253 3.253 c 0 1.793 1.459 3.253 3.253 3.253 s 3.253 -1.459 3.253 -3.253 C 48.253 3.459 46.794 2 45 2 z" style="stroke: none; stroke-width: 1; stroke-dasharray: none; stroke-linecap: butt; stroke-linejoin: miter; stroke-miterlimit: 10; fill: rgb(0,0,0); fill-rule: nonzero; opacity: 1;" transform=" matrix(1 0 0 1 0 0) " stroke-linecap="round" />
</g>
</svg>