<svg xmlns="http://www.w3.org/2000/svg" xmlns:xlink="http://www.w3.org/1999/xlink" version="1.1" width="256" height="256" viewBox="0 0 256 256" xml:space="preserve">

<defs>
</defs>
<g style="stroke: none; stroke-width: 0; stroke-dasharray: none; stroke-linecap: butt; stroke-linejoin: miter; stroke-miterlimit: 10; fill: none; fill-rule: nonzero; opacity: 1;" transform="translate(1.4065934065934016 1.4065934065934016) scale(2.81 2.81)" >
	<polygon points="4.14,1 4.14,52.07 4.14,55.68 4.14,73.68 4.14,82.63 62.58,82.63 62.58,73.68 62.58,55.68 62.58,52.07 62.58,1 " style="stroke: none; stroke-width: 1; stroke-dasharray: none; stroke-linecap: butt; stroke-linejoin: miter; stroke-miterlimit: 10; fill: rgb(225,234,239); fill-rule: nonzero; opacity: 1;" transform="  matrix(1 0 0 1 0 0) "/>
	<path d="M 41.853 53.066 H 11.208 c -0.552 0 -1 -0.447 -1 -1 s 0.448 -1 1 -1 h 30.645 c 0.552 0 1 0.447 1 1 S 42.405 53.066 41.853 53.066 z" style="stroke: none; stroke-width: 1; stroke-dasharray: none; stroke-linecap: butt; stroke-linejoin: miter; stroke-miterlimit: 10; fill: rgb(0,0,0); fill-rule: nonzero; opacity: 1;" transform=" matrix(1 0 0 1 0 0) " stroke-linecap="round" />
	<path d="M 37.403 61.76 H 11.208 c -0.552 0 -1 -0.447 -1 -1 s 0.448 -1 1 -1 h 26.195 c 0.552 0 1 0.447 1 1 S 37.956 61.76 37.403 61.76 z" style="stroke: none; stroke-width: 1; stroke-dasharray: none; stroke-linecap: butt; stroke-linejoin: miter; stroke-miterlimit: 10; fill: rgb(0,0,0); fill-rule: nonzero; opacity: 1;" transform=" matrix(1 0 0 1 0 0) " stroke-linecap="round" />
	<circle cx="33.02" cy="21.29" r="12.38" style="stroke: none; stroke-width: 1; stroke-dasharray: none; stroke-linecap: butt; stroke-linejoin: miter; stroke-miterlimit: 10; fill: rgb(244,193,66); fill-rule: nonzero; opacity: 1;" transform="  matrix(1 0 0 1 0 0) "/>
	<path d="M 33.025 34.672 c -7.378 0 -13.38 -6.002 -13.38 -13.38 c 0 -7.378 6.002 -13.381 13.38 -13.381 s 13.38 6.002 13.38 13.381 C 46.405 28.67 40.403 34.672 33.025 34.672 z M 33.025 9.911 c -6.275 0 -11.38 5.105 -11.38 11.381 s 5.105 11.38 11.38 11.38 s 11.38 -5.105 11.38 -11.38 S 39.3 9.911 33.025 9.911 z" style="stroke: none; stroke-width: 1; stroke-dasharray: none; stroke-linecap: butt; stroke-linejoin: miter; stroke-miterlimit: 10; fill: rgb(0,0,0); fill-rule: nonzero; opacity: 1;" transform=" matrix(1 0 0 1 0 0) " stroke-linecap="round" />
	<path d="M 32.928 28.407 c -0.561 0 -1.121 -0.12 -1.646 -0.359 c -0.969 -0.44 -1.708 -1.231 -2.081 -2.228 c -0.194 -0.517 0.068 -1.094 0.585 -1.288 c 0.518 -0.192 1.094 0.068 1.288 0.585 c 0.186 0.496 0.554 0.89 1.036 1.109 c 0.482 0.219 1.021 0.237 1.517 0.051 c 1.023 -0.383 1.544 -1.528 1.16 -2.552 c -0.22 -0.586 -0.693 -1.024 -1.297 -1.202 l -1.553 -0.566 c -1.152 -0.336 -2.102 -1.218 -2.544 -2.399 c -0.771 -2.055 0.274 -4.355 2.33 -5.126 c 0.997 -0.374 2.078 -0.337 3.047 0.103 c 0.969 0.44 1.708 1.231 2.081 2.228 c 0.194 0.517 -0.068 1.094 -0.585 1.288 c -0.516 0.193 -1.093 -0.068 -1.288 -0.585 c -0.186 -0.496 -0.554 -0.89 -1.036 -1.109 c -0.481 -0.218 -1.021 -0.237 -1.517 -0.051 c -1.023 0.384 -1.544 1.529 -1.16 2.552 c 0.219 0.586 0.692 1.024 1.297 1.202 l 1.552 0.566 c 1.151 0.335 2.102 1.217 2.545 2.398 c 0.373 0.996 0.336 2.078 -0.104 3.046 c -0.44 0.969 -1.231 1.708 -2.228 2.081 C 33.873 28.322 33.399 28.407 32.928 28.407 z" style="stroke: none; stroke-width: 1; stroke-dasharray: none; stroke-linecap: butt; stroke-linejoin: miter; stroke-miterlimit: 10; fill: rgb(0,0,0); fill-rule: nonzero; opacity: 1;" transform=" matrix(1 0 0 1 0 0) " stroke-linecap="round" />
	<path d="M 33.025 16.182 c -0.552 0 -1 -0.448 -1 -1 v -1.667 c 0 -0.552 0.448 -1 1 -1 s 1 0.448 1 1 v 1.667 C 34.025 15.734 33.577 16.182 33.025 16.182 z" style="stroke: none; stroke-width: 1; stroke-dasharray: none; stroke-linecap: butt; stroke-linejoin: miter; stroke-miterlimit: 10; fill: rgb(0,0,0); fill-rule: nonzero; opacity: 1;" transform=" matrix(1 0 0 1 0 0) " stroke-linecap="round" />
	<path d="M 33.025 30.068 c -0.552 0 -1 -0.448 -1 -1 v -1.667 c 0 -0.552 0.448 -1 1 -1 s 1 0.448 1 1 v 1.667 C 34.025 29.621 33.577 30.068 33.025 30.068 z" style="stroke: none; stroke-width: 1; stroke-dasharray: none; stroke-linecap: butt; stroke-linejoin: miter; stroke-miterlimit: 10; fill: rgb(0,0,0); fill-rule: nonzero; opacity: 1;" transform=" matrix(1 0 0 1 0 0) " stroke-linecap="round" />
	<path d="M 37.403 70.452 H 11.208 c -0.552 0 -1 -0.447 -1 -1 s 0.448 -1 1 -1 h 26.195 c 0.552 0 1 0.447 1 1 S 37.956 70.452 37.403 70.452 z" style="stroke: none; stroke-width: 1; stroke-dasharray: none; stroke-linecap: butt; stroke-linejoin: miter; stroke-miterlimit: 10; fill: rgb(0,0,0); fill-rule: nonzero; opacity: 1;" transform=" matrix(1 0 0 1 0 0) " stroke-linecap="round" />
	<path d="M 48.527 44.167 H 11.208 c -0.552 0 -1 -0.448 -1 -1 s 0.448 -1 1 -1 h 37.319 c 0.553 0 1 0.448 1 1 S 49.08 44.167 48.527 44.167 z" style="stroke: none; stroke-width: 1; stroke-dasharray: none; stroke-linecap: butt; stroke-linejoin: miter; stroke-miterlimit: 10; fill: rgb(0,0,0); fill-rule: nonzero; opacity: 1;" transform=" matrix(1 0 0 1 0 0) " stroke-linecap="round" />
	<path d="M 62.58 83.627 H 4.138 c -0.552 0 -1 -0.447 -1 -1 V 1 c 0 -0.552 0.448 -1 1 -1 H 62.58 c 0.553 0 1 0.448 1 1 v 81.627 C 63.58 83.18 63.133 83.627 62.58 83.627 z M 5.138 81.627 H 61.58 V 2 H 5.138 V 81.627 z" style="stroke: none; stroke-width: 1; stroke-dasharray: none; stroke-linecap: butt; stroke-linejoin: miter; stroke-miterlimit: 10; fill: rgb(0,0,0); fill-rule: nonzero; opacity: 1;" transform=" matrix(1 0 0 1 0 0) " stroke-linecap="round" />
	<path d="M 60.328 52.015 c -0.412 1.455 -1.706 2.604 -3.374 2.885 l -5.257 0.885 c -2.769 0.466 -4.781 2.69 -4.781 5.284 V 89 h 38.947 V 61.069 c 0 -2.594 -2.012 -4.818 -4.781 -5.284 L 75.824 54.9 c -1.668 -0.281 -2.962 -1.429 -3.374 -2.884" style="stroke: none; stroke-width: 1; stroke-dasharray: none; stroke-linecap: butt; stroke-linejoin: miter; stroke-miterlimit: 10; fill: rgb(66,148,255); fill-rule: nonzero; opacity: 1;" transform=" matrix(1 0 0 1 0 0) " stroke-linecap="round" />
	<path d="M 55.962 37.407 l 0.39 6.445 c 0.409 4.894 3.633 9.101 8.251 10.77 l 0 0 c 0.577 0.209 1.182 0.313 1.786 0.313 c 0.604 0 1.209 -0.104 1.786 -0.313 l 0 0 c 4.619 -1.669 7.842 -5.876 8.252 -10.77 l 0 0 l 0.414 -6.445 v -4.447 c 0 0 -19.045 -3.588 -19.238 -3.588 c -0.192 0 -1.922 4.357 -1.922 4.357 L 55.962 37.407 z" style="stroke: none; stroke-width: 1; stroke-dasharray: none; stroke-linecap: butt; stroke-linejoin: miter; stroke-miterlimit: 10; fill: rgb(255,221,212); fill-rule: nonzero; opacity: 1;" transform=" matrix(1 0 0 1 0 0) " stroke-linecap="round" />
	<path d="M 76.841 37.407 c 4.611 -6.863 2.519 -11.539 -4.906 -14.478 c 0.162 -0.678 1.097 -1.356 2.572 -2.034 c -6.106 -2.294 -13.367 -1.769 -16.689 3.595 c -4.551 1.534 -5.944 6.627 -1.857 12.917 c 0.456 -7.698 5.453 -7.072 11.486 -4.547 c 3.051 1.167 5.699 1.047 8.196 0.658 C 77.009 33.263 76.942 35.691 76.841 37.407 z" style="stroke: none; stroke-width: 1; stroke-dasharray: none; stroke-linecap: butt; stroke-linejoin: miter; stroke-miterlimit: 10; fill: rgb(73,74,89); fill-rule: nonzero; opacity: 1;" transform=" matrix(1 0 0 1 0 0) " stroke-linecap="round" />
	<path d="M 70.666 86.082 L 67.99 61.144 L 70 57.964 l -1.572 -3.444 c -0.085 0.033 -0.167 0.071 -0.252 0.102 l 0 0 c -0.577 0.208 -1.181 0.313 -1.786 0.313 c -0.604 0 -1.209 -0.104 -1.786 -0.313 l 0 0 c -0.086 -0.031 -0.168 -0.069 -0.252 -0.102 l -1.572 3.444 l 2.009 3.179 l -2.675 24.938 L 64.102 89 h 4.574 L 70.666 86.082 z" style="stroke: none; stroke-width: 1; stroke-dasharray: none; stroke-linecap: butt; stroke-linejoin: miter; stroke-miterlimit: 10; fill: rgb(225,234,239); fill-rule: nonzero; opacity: 1;" transform=" matrix(1 0 0 1 0 0) " stroke-linecap="round" />
	<path d="M 85.862 90 H 46.916 c -0.553 0 -1 -0.447 -1 -1 V 61.069 c 0 -3.086 2.361 -5.723 5.614 -6.271 l 5.257 -0.886 c 1.253 -0.211 2.265 -1.063 2.579 -2.171 c 0.149 -0.533 0.706 -0.845 1.234 -0.689 c 0.531 0.15 0.84 0.703 0.689 1.234 c -0.522 1.847 -2.16 3.26 -4.171 3.599 l -5.257 0.886 c -2.287 0.385 -3.946 2.192 -3.946 4.298 V 88 h 36.946 V 61.069 c 0 -2.105 -1.66 -3.913 -3.947 -4.298 l -5.257 -0.886 c -2.01 -0.338 -3.646 -1.75 -4.17 -3.598 c -0.15 -0.531 0.158 -1.084 0.689 -1.234 c 0.525 -0.152 1.084 0.157 1.234 0.689 c 0.314 1.107 1.326 1.96 2.578 2.17 l 5.257 0.886 c 3.254 0.548 5.615 3.185 5.615 6.271 V 89 C 86.862 89.553 86.415 90 85.862 90 z" style="stroke: none; stroke-width: 1; stroke-dasharray: none; stroke-linecap: butt; stroke-linejoin: miter; stroke-miterlimit: 10; fill: rgb(0,0,0); fill-rule: nonzero; opacity: 1;" transform=" matrix(1 0 0 1 0 0) " stroke-linecap="round" />
	<path d="M 76.841 38.407 c -0.106 0 -0.214 -0.017 -0.319 -0.052 c -0.428 -0.144 -0.705 -0.556 -0.679 -1.006 c 0.109 -1.871 -0.014 -2.57 -0.129 -2.83 c -2.423 0.369 -5.296 0.549 -8.623 -0.724 c -2.588 -1.083 -6.216 -2.365 -8.188 -1.138 c -1.143 0.712 -1.796 2.331 -1.943 4.809 c -0.025 0.431 -0.325 0.797 -0.742 0.908 c -0.417 0.11 -0.859 -0.06 -1.095 -0.422 c -2.381 -3.665 -3.15 -7.243 -2.166 -10.074 c 0.676 -1.942 2.161 -3.427 4.204 -4.213 c 3.796 -5.723 11.581 -6.005 17.698 -3.706 c 0.378 0.142 0.634 0.497 0.647 0.9 c 0.015 0.403 -0.215 0.776 -0.581 0.944 c -0.626 0.288 -1.059 0.535 -1.357 0.736 c 3.469 1.603 5.614 3.666 6.385 6.146 c 0.829 2.669 0.062 5.791 -2.282 9.278 C 77.481 38.247 77.167 38.407 76.841 38.407 z M 67.675 20.608 c -3.627 0 -7.054 1.257 -9.005 4.409 c -0.123 0.198 -0.311 0.347 -0.531 0.421 c -1.642 0.553 -2.78 1.624 -3.292 3.097 c -0.567 1.631 -0.352 3.647 0.6 5.836 c 0.471 -1.579 1.266 -2.705 2.398 -3.412 c 2.726 -1.698 6.77 -0.37 9.989 0.979 c 2.914 1.114 5.404 0.944 7.656 0.592 c 0.544 -0.102 1.087 0.039 1.5 0.402 c 0.285 0.25 0.484 0.585 0.622 0.979 c 0.703 -1.736 0.849 -3.287 0.431 -4.631 c -0.671 -2.162 -2.85 -3.985 -6.476 -5.42 c -0.462 -0.183 -0.72 -0.677 -0.604 -1.161 c 0.129 -0.544 0.479 -1.042 1.087 -1.526 C 70.614 20.81 69.128 20.608 67.675 20.608 z" style="stroke: none; stroke-width: 1; stroke-dasharray: none; stroke-linecap: butt; stroke-linejoin: miter; stroke-miterlimit: 10; fill: rgb(0,0,0); fill-rule: nonzero; opacity: 1;" transform=" matrix(1 0 0 1 0 0) " stroke-linecap="round" />
	<path d="M 66.389 55.935 c -0.729 0 -1.444 -0.125 -2.127 -0.372 c -4.97 -1.796 -8.467 -6.36 -8.906 -11.627 l -0.392 -6.468 c -0.033 -0.551 0.387 -1.025 0.938 -1.059 c 0.548 -0.031 1.025 0.386 1.059 0.938 l 0.39 6.445 c 0.374 4.467 3.354 8.359 7.593 9.89 c 0.928 0.336 1.966 0.336 2.892 0 c 4.238 -1.531 7.22 -5.422 7.597 -9.913 l 0.412 -6.425 c 0.035 -0.551 0.484 -0.968 1.063 -0.934 c 0.551 0.036 0.969 0.511 0.934 1.062 l -0.414 6.445 c -0.443 5.287 -3.939 9.851 -8.91 11.646 C 67.833 55.81 67.117 55.935 66.389 55.935 z" style="stroke: none; stroke-width: 1; stroke-dasharray: none; stroke-linecap: butt; stroke-linejoin: miter; stroke-miterlimit: 10; fill: rgb(0,0,0); fill-rule: nonzero; opacity: 1;" transform=" matrix(1 0 0 1 0 0) " stroke-linecap="round" />
	<path d="M 68.676 90 h -4.574 c -0.331 0 -0.64 -0.163 -0.826 -0.437 l -1.989 -2.918 c -0.134 -0.196 -0.193 -0.434 -0.168 -0.67 l 2.638 -24.593 l -1.823 -2.884 c -0.18 -0.285 -0.204 -0.643 -0.064 -0.949 l 1.572 -3.444 c 0.222 -0.482 0.775 -0.712 1.274 -0.517 l 0.232 0.095 c 0.918 0.332 1.961 0.334 2.887 -0.002 l 0.229 -0.093 c 0.494 -0.194 1.054 0.034 1.274 0.517 l 1.572 3.444 c 0.14 0.307 0.115 0.664 -0.064 0.949 l -1.824 2.885 l 2.639 24.592 c 0.025 0.236 -0.034 0.474 -0.168 0.67 l -1.99 2.918 C 69.315 89.837 69.007 90 68.676 90 z M 64.63 88 h 3.518 l 1.485 -2.178 L 66.996 61.25 c -0.024 -0.225 0.028 -0.45 0.148 -0.641 l 1.721 -2.722 l -0.975 -2.136 c -0.98 0.242 -2.024 0.242 -3.003 0 l -0.975 2.136 l 1.72 2.722 c 0.12 0.19 0.173 0.417 0.148 0.641 l -2.636 24.573 L 64.63 88 z" style="stroke: none; stroke-width: 1; stroke-dasharray: none; stroke-linecap: butt; stroke-linejoin: miter; stroke-miterlimit: 10; fill: rgb(0,0,0); fill-rule: nonzero; opacity: 1;" transform=" matrix(1 0 0 1 0 0) " stroke-linecap="round" />
	<path d="M 71.944 40.366 h -2.84 c -0.553 0 -1 -0.448 -1 -1 s 0.447 -1 1 -1 h 2.84 c 0.553 0 1 0.448 1 1 S 72.497 40.366 71.944 40.366 z" style="stroke: none; stroke-width: 1; stroke-dasharray: none; stroke-linecap: butt; stroke-linejoin: miter; stroke-miterlimit: 10; fill: rgb(0,0,0); fill-rule: nonzero; opacity: 1;" transform=" matrix(1 0 0 1 0 0) " stroke-linecap="round" />
	<path d="M 63.674 40.366 h -2.84 c -0.553 0 -1 -0.448 -1 -1 s 0.447 -1 1 -1 h 2.84 c 0.553 0 1 0.448 1 1 S 64.227 40.366 63.674 40.366 z" style="stroke: none; stroke-width: 1; stroke-dasharray: none; stroke-linecap: butt; stroke-linejoin: miter; stroke-miterlimit: 10; fill: rgb(0,0,0); fill-rule: nonzero; opacity: 1;" transform=" matrix(1 0 0 1 0 0) " stroke-linecap="round" />
	<path d="M 66.454 49.954 c -1.362 0 -2.746 -0.547 -4.114 -1.641 c -0.432 -0.345 -0.502 -0.975 -0.157 -1.405 s 0.977 -0.503 1.405 -0.157 c 2.008 1.604 3.728 1.611 5.574 0.023 c 0.42 -0.36 1.051 -0.313 1.41 0.105 c 0.36 0.419 0.313 1.051 -0.105 1.41 C 69.177 49.399 67.826 49.954 66.454 49.954 z" style="stroke: none; stroke-width: 1; stroke-dasharray: none; stroke-linecap: butt; stroke-linejoin: miter; stroke-miterlimit: 10; fill: rgb(0,0,0); fill-rule: nonzero; opacity: 1;" transform=" matrix(1 0 0 1 0 0) " stroke-linecap="round" />
	<path d="M 55.814 90 c -0.553 0 -1 -0.447 -1 -1 V 73.411 c 0 -0.553 0.447 -1 1 -1 s 1 0.447 1 1 V 89 C 56.814 89.553 56.367 90 55.814 90 z" style="stroke: none; stroke-width: 1; stroke-dasharray: none; stroke-linecap: butt; stroke-linejoin: miter; stroke-miterlimit: 10; fill: rgb(0,0,0); fill-rule: nonzero; opacity: 1;" transform=" matrix(1 0 0 1 0 0) " stroke-linecap="round" />
	<path d="M 76.963 90 c -0.553 0 -1 -0.447 -1 -1 V 73.411 c 0 -0.553 0.447 -1 1 -1 s 1 0.447 1 1 V 89 C 77.963 89.553 77.516 90 76.963 90 z" style="stroke: none; stroke-width: 1; stroke-dasharray: none; stroke-linecap: butt; stroke-linejoin: miter; stroke-miterlimit: 10; fill: rgb(0,0,0); fill-rule: nonzero; opacity: 1;" transform=" matrix(1 0 0 1 0 0) " stroke-linecap="round" />
</g>
</svg>