<svg xmlns="http://www.w3.org/2000/svg" xmlns:xlink="http://www.w3.org/1999/xlink" version="1.1" width="256" height="256" viewBox="0 0 256 256" xml:space="preserve">

<defs>
</defs>
<g style="stroke: none; stroke-width: 0; stroke-dasharray: none; stroke-linecap: butt; stroke-linejoin: miter; stroke-miterlimit: 10; fill: none; fill-rule: nonzero; opacity: 1;" transform="translate(1.4065934065934016 1.4065934065934016) scale(2.81 2.81)" >
	<path d="M 72.866 14.985 H 13.657 l 4.811 -4.811 c 1.562 -1.563 1.562 -4.095 0 -5.657 c -1.563 -1.562 -4.095 -1.562 -5.657 0 L 1.171 16.156 c -0.016 0.016 -0.027 0.036 -0.043 0.052 c -0.167 0.172 -0.321 0.357 -0.455 0.557 c -0.07 0.104 -0.118 0.216 -0.176 0.325 c -0.065 0.121 -0.138 0.236 -0.191 0.364 c -0.057 0.137 -0.09 0.279 -0.13 0.42 c -0.032 0.109 -0.074 0.214 -0.097 0.327 c -0.103 0.517 -0.103 1.05 0 1.568 c 0.023 0.114 0.066 0.22 0.098 0.33 c 0.041 0.14 0.073 0.281 0.129 0.416 c 0.054 0.131 0.129 0.249 0.196 0.372 c 0.057 0.106 0.104 0.215 0.172 0.316 c 0.145 0.217 0.31 0.42 0.494 0.604 c 0.002 0.002 0.003 0.004 0.004 0.005 l 11.639 11.64 c 0.781 0.781 1.805 1.172 2.829 1.172 c 1.023 0 2.047 -0.391 2.828 -1.171 c 1.563 -1.562 1.563 -4.095 0 -5.657 l -4.811 -4.811 h 59.209 c 5.036 0 9.134 4.098 9.134 9.134 v 15.906 c 0 2.209 1.791 4 4 4 s 4 -1.791 4 -4 V 32.119 C 90 22.671 82.313 14.985 72.866 14.985 z" style="stroke: none; stroke-width: 1; stroke-dasharray: none; stroke-linecap: butt; stroke-linejoin: miter; stroke-miterlimit: 10; fill: rgb(61,220,128); fill-rule: nonzero; opacity: 1;" transform=" matrix(1 0 0 1 0 0) " stroke-linecap="round" />
	<path d="M 89.692 72.552 c 0.032 -0.077 0.047 -0.159 0.074 -0.238 c 0.058 -0.167 0.119 -0.332 0.155 -0.508 c 0.052 -0.259 0.08 -0.523 0.08 -0.791 s -0.028 -0.532 -0.08 -0.791 c -0.035 -0.177 -0.097 -0.342 -0.155 -0.509 c -0.027 -0.078 -0.042 -0.16 -0.073 -0.237 c -0.077 -0.186 -0.178 -0.357 -0.282 -0.528 c -0.031 -0.052 -0.053 -0.109 -0.087 -0.159 c -0.146 -0.218 -0.313 -0.422 -0.498 -0.607 L 77.188 56.548 c -1.563 -1.563 -4.096 -1.563 -5.656 0 c -1.563 1.562 -1.563 4.095 0 5.656 l 4.811 4.811 H 17.134 C 12.097 67.015 8 62.917 8 57.881 V 41.975 c 0 -2.209 -1.791 -4 -4 -4 s -4 1.791 -4 4 v 15.906 c 0 9.447 7.686 17.134 17.134 17.134 h 59.209 l -4.811 4.812 c -1.563 1.562 -1.563 4.095 0 5.656 c 0.78 0.781 1.805 1.172 2.828 1.172 s 2.048 -0.391 2.828 -1.172 l 11.637 -11.637 c 0.185 -0.185 0.352 -0.389 0.498 -0.607 c 0.033 -0.05 0.054 -0.106 0.085 -0.157 C 89.513 72.91 89.614 72.738 89.692 72.552 z" style="stroke: none; stroke-width: 1; stroke-dasharray: none; stroke-linecap: butt; stroke-linejoin: miter; stroke-miterlimit: 10; fill: rgb(255,123,108); fill-rule: nonzero; opacity: 1;" transform=" matrix(1 0 0 1 0 0) " stroke-linecap="round" />
</g>
</svg>